<svg xmlns="http://www.w3.org/2000/svg" viewBox="0 0 200.001 41.814"><defs><style>.a{fill:#fff;}.b{fill:#faa824;}</style></defs><g transform="translate(0 0.001)"><path class="a" d="M-9811.668-5910.093c-.085-11.671,8.059-20.908,19.9-20.908a17.816,17.816,0,0,1,13.434,5.711l-2.6,7.472a14.071,14.071,0,0,0-10.916-6.3c-7.809,0-12.512,6.3-12.512,13.937,0,7.894,5.04,14.021,12.847,14.021,3.862,0,8.23-2.266,11.084-6.3l2.016,7.222a16.964,16.964,0,0,1-13.1,6.044C-9803.693-5889.187-9811.668-5898-9811.668-5910.093Zm38.033,20.4v-40.721h10.915c9.068,0,13.6,4.281,13.6,10.747,0,3.525-1.678,7.137-4.449,8.228,4.112,1.006,6.634,4.45,6.634,9.4,0,7.893-5.459,12.343-14.946,12.343Zm7.306-6.968h4.869c4.787,0,7.053-1.931,7.053-5.122,0-3.609-2.1-5.458-7.556-5.458h-4.366Zm.084-17.549h3.863c3.524.084,5.875-1.51,5.875-4.7,0-3.109-1.51-4.619-5.96-4.619h-3.778Zm-71.619,24.518v-40.721h23.006v6.884h-15.787v9.234h14.274v6.971h-14.274v10.663h16.29v6.968Zm-9.656,0-4.45-11.334h-13.771l-4.45,11.334H-9878l16.374-41.142h5.793l16.2,41.142Zm-15.784-17.633h9.2l-4.669-11.837Z" transform="translate(9946.934 5931)"/><path class="b" d="M39.295.7h9.4L69.018,21.019,48.783,41.338H39.295L59.614,21.019ZM9.4,21.019,29.723,41.338h-9.4L0,21.019,20.319.7h9.4Z" transform="translate(0 -0.112)"/></g></svg>